<?xml version="1.0" encoding="utf-8"?>
<!-- Generator: Adobe Illustrator 24.0.1, SVG Export Plug-In . SVG Version: 6.00 Build 0)  -->
<svg version="1.1" id="Layer_1" xmlns="http://www.w3.org/2000/svg" xmlns:xlink="http://www.w3.org/1999/xlink" x="0px" y="0px"
	 viewBox="0 0 843.5 154.9" style="enable-background:new 0 0 843.5 154.9;" xml:space="preserve">
<style type="text/css">
	.st0{fill:#08162A;}
	.st1{fill:#17D0BC;}
	.st2{fill:#FF6262;}
</style>
<title>Asset 9</title>
<g id="Layer_2_1_">
	<g id="Layer_1-2">
		<path class="st0" d="M151.1,65.3c0.1,5.8-0.7,11.5-2.3,17.1c-1.4,4.7-3.5,9.2-6.3,13.3c-2.5,3.7-5.6,7-9.1,9.8
			c-6.5,5.2-14.1,8.7-22.2,10.4c-3.6,0.7-7.2,1.1-10.8,1.1h-62V89.1h62c3.3-0.2,6.5-1,9.6-2.2c2.7-1.1,5.2-2.7,7.3-4.8
			c2.1-2.1,3.7-4.5,4.7-7.3c1.2-3.1,1.7-6.3,1.7-9.6V52.6c-0.3-3.3-1.1-6.6-2.2-9.7c-1-2.8-2.6-5.3-4.6-7.5c-2-2.1-4.4-3.8-7-4.9
			c-3-1.2-6.2-1.8-9.5-1.8H38.6c-3.7,0-6.4,1-8.3,2.9c-1.9,1.9-2.9,4.7-2.8,8.4v114.9H0V40c0-7.1,1.3-13.2,3.8-18.2
			c2.3-4.7,5.6-8.8,9.6-12.1c3.7-3,8-5.3,12.5-6.7c4-1.3,8.2-2,12.4-2.1h62c5.6-0.1,11.3,0.7,16.7,2.4c4.6,1.5,9,3.6,13,6.5
			c3.7,2.6,6.9,5.7,9.6,9.3c2.6,3.4,4.8,7.1,6.5,11c1.7,3.7,3,7.6,3.8,11.6c0.7,3.6,1.1,7.3,1.2,11L151.1,65.3z"/>
		<path class="st0" d="M322.7,154.9H186.6c-2.1,0-4.1-0.3-6-1.1c-1.8-0.7-3.4-1.7-4.8-2.9c-2.8-2.6-4.3-6.2-4.3-10.1V0.8h29.8v121.1
			c0.1,2.9,2.5,5.1,5.3,5h116V154.9z"/>
		<path class="st0" d="M497.7,91.8c0.1,8.7-1.6,17.3-4.8,25.3c-3.1,7.5-7.6,14.3-13.4,20c-5.8,5.7-12.8,10.1-20.4,13.1
			c-8.2,3.2-16.9,4.8-25.6,4.7h-37.8c-8.8,0.1-17.5-1.5-25.6-4.7c-15.4-5.9-27.6-17.8-33.9-33c-3.3-8-5-16.6-4.9-25.3V63
			c-0.1-8.7,1.6-17.3,4.9-25.3c3.1-7.5,7.7-14.3,13.5-20c5.9-5.6,12.8-10.1,20.4-13c8.2-3.2,16.9-4.8,25.6-4.7h37.8
			c8.8-0.1,17.5,1.5,25.6,4.7c7.6,3,14.5,7.4,20.4,13.1c5.8,5.7,10.4,12.5,13.4,20c3.3,8,4.9,16.6,4.8,25.2V91.8z M469.8,63
			c0.1-5-0.8-10-2.6-14.7c-1.7-4.2-4.2-8.1-7.4-11.2c-3.3-3.2-7.2-5.6-11.5-7.3c-4.7-1.8-9.7-2.6-14.8-2.6h-37.8
			c-5.1-0.1-10.1,0.8-14.9,2.6c-4.3,1.6-8.2,4.1-11.5,7.3c-3.3,3.2-5.8,7-7.5,11.2C359.9,53,359,58,359.1,63v28.8
			c-0.1,5,0.8,10,2.6,14.7c1.7,4.2,4.2,8.1,7.5,11.2c3.3,3.2,7.2,5.7,11.6,7.3c4.8,1.8,9.8,2.6,14.9,2.6h37.6
			c5.1,0.1,10.1-0.8,14.9-2.6c4.3-1.6,8.2-4.1,11.5-7.3c3.3-3.2,5.8-7,7.5-11.2c1.8-4.7,2.7-9.6,2.6-14.7L469.8,63z"/>
		<path class="st0" d="M662.4,28.7h-56.5c-2.8,0-5,2.2-5,5v121.1h-27.9V33.7c0-2.8-2.2-5-5-5h-56.7V0.8h151.1V28.7z"/>
		<path class="st1" d="M703.5,124l58.1-40.7c1.7-1.2,3.7-2.1,5.7-2.6c2.3-0.7,4.6-1,7-1c2.4,0,4.9,0.3,7.2,1c2.1,0.6,4,1.5,5.8,2.7
			l56.2,40.2v31.1l-69.2-49.5l-70.8,49.5L703.5,124z"/>
		<path class="st2" d="M703.5,0.7l70.8,49.5l69.2-49.5v31.1l-56.2,40.1c-3.3,2.5-7.6,3.7-13,3.7c-2.4,0-4.7-0.3-7-1
			c-2-0.6-4-1.4-5.7-2.6l-58.1-40.6V0.7z"/>
	</g>
</g>
</svg>
